<svg width="25" height="25" viewBox="0 0 25 25" fill="none" xmlns="http://www.w3.org/2000/svg">
<path d="M24.63 7.91803L12.9633 0.140117C12.8264 0.0487562 12.6655 0 12.5008 0C12.3362 0 12.1753 0.0487562 12.0383 0.140117L0.371667 7.91803C0.25752 7.99416 0.163893 8.09724 0.0990684 8.21817C0.0342434 8.33909 0.000217489 8.47412 0 8.61132V16.3892C0 16.6675 0.14 16.9275 0.371667 17.0825L12.0383 24.8604C12.1751 24.9514 12.3357 25 12.5 25C12.6643 25 12.8249 24.9514 12.9617 24.8604L24.6283 17.0825C24.7425 17.0064 24.8361 16.9033 24.9009 16.7824C24.9658 16.6615 24.9998 16.5264 25 16.3892V8.61132C24.9998 8.47412 24.9658 8.33909 24.9009 8.21817C24.8361 8.09724 24.7425 7.99416 24.6283 7.91803H24.63ZM12.5017 15.386L8.17 12.4994L12.5017 9.61293L16.8333 12.4994L12.5017 15.386ZM13.335 8.16468V2.38999L22.6667 8.60966L18.335 11.4962L13.335 8.16301V8.16468ZM11.6683 8.16468L6.66833 11.4978L2.33667 8.61132L11.6683 2.39166V8.16635V8.16468ZM5.16667 12.4994L1.66833 14.831V10.1679L5.16667 12.4994ZM6.66833 13.5011L11.6683 16.8342V22.6089L2.33667 16.3892L6.66833 13.5027V13.5011ZM13.335 16.8342L18.335 13.5011L22.6667 16.3876L13.335 22.6072V16.8325V16.8342ZM19.8367 12.4994L23.335 10.1679V14.831L19.8367 12.4994Z" fill="#BEBEBE"/>
</svg>
