<svg width="25" height="27" viewBox="0 0 25 27" fill="none" xmlns="http://www.w3.org/2000/svg">
<path d="M13.5002 2.38889C15.8172 2.38889 17.1282 2.94432 17.6668 3.08333C18.3967 2.49254 20.3578 1 22.5279 1C23.0054 2.38889 22.9256 4.08224 22.5279 5.16667C23.5696 6.55556 23.9168 7.94444 23.9168 10.0278C23.9168 13.066 23.246 15.0031 21.8335 16.2778C20.421 17.5525 18.9011 18.1874 16.9724 18.3611C17.876 19.1083 17.6668 20.9643 17.6668 21.8333C17.6668 22.8411 17.6668 26 17.6668 26M13.5002 2.38889C11.1831 2.38889 9.87216 2.94432 9.3335 3.08333C8.6037 2.49254 6.64252 1 4.47238 1C3.99495 2.38889 4.07476 4.08224 4.47238 5.16667C3.43072 6.55556 3.0835 7.94444 3.0835 10.0278C3.0835 13.066 3.75434 15.0031 5.16683 16.2778C6.57932 17.5525 8.09919 18.1874 10.0279 18.3611C9.12438 19.1083 9.3335 20.9643 9.3335 21.8333C9.3335 22.8411 9.3335 26 9.3335 26" stroke="#BEBEBE" stroke-width="2" stroke-linecap="round" stroke-linejoin="round"/>
<path d="M9.33333 23.2222C7.38021 23.2222 5.38368 22.441 4.21181 21.5729C3.03993 20.7049 2.69271 19.2725 1 18.3611" stroke="#BEBEBE" stroke-width="2" stroke-linecap="round" stroke-linejoin="round"/>
</svg>
