<svg width="24" height="25" viewBox="0 0 24 25" fill="none" xmlns="http://www.w3.org/2000/svg">
<path d="M21.375 25H19.3919C18.762 25 18.1579 24.7491 17.7125 24.3026C17.2671 23.8561 17.0169 23.2505 17.0169 22.619V16.2262C17.0275 15.9755 16.9519 15.7287 16.8027 15.5272C16.6536 15.3256 16.4399 15.1816 16.1975 15.119C16.0565 15.0975 15.9125 15.1066 15.7752 15.1456C15.638 15.1846 15.5106 15.2527 15.4019 15.3452C15.2899 15.4405 15.2001 15.5591 15.1385 15.6927C15.077 15.8264 15.0453 15.9719 15.0456 16.119V22.619C15.0456 23.2505 14.7954 23.8561 14.35 24.3026C13.9046 24.7491 13.3005 25 12.6706 25H10.6875C10.0576 25 9.45352 24.7491 9.00812 24.3026C8.56272 23.8561 8.3125 23.2505 8.3125 22.619V16.119C8.3125 14.0668 9.12572 12.0986 10.5733 10.6474C12.0208 9.19621 13.9841 8.38095 16.0312 8.38095C18.0784 8.38095 20.0417 9.19621 21.4892 10.6474C22.9368 12.0986 23.75 14.0668 23.75 16.119V22.619C23.75 23.2505 23.4998 23.8561 23.0544 24.3026C22.609 24.7491 22.0049 25 21.375 25ZM16.0312 12.7262C16.2171 12.7144 16.4035 12.7144 16.5894 12.7262C17.3866 12.8799 18.1044 13.3102 18.6169 13.9415C19.1293 14.5727 19.4037 15.3648 19.3919 16.1786V22.619H21.375V16.119C21.375 14.6982 20.812 13.3356 19.8099 12.331C18.8077 11.3263 17.4485 10.7619 16.0312 10.7619C14.614 10.7619 13.2548 11.3263 12.2526 12.331C11.2505 13.3356 10.6875 14.6982 10.6875 16.119V22.619H12.6706V16.119C12.6706 15.2233 13.0239 14.3639 13.6535 13.7283C14.283 13.0927 15.1378 12.7325 16.0312 12.7262V12.7262ZM4.75 25H2.375C1.74511 25 1.14102 24.7491 0.695623 24.3026C0.250224 23.8561 1.63866e-06 23.2505 1.63866e-06 22.619V10.7143C1.63866e-06 10.0828 0.250224 9.47721 0.695623 9.0307C1.14102 8.58418 1.74511 8.33333 2.375 8.33333H4.75C5.37989 8.33333 5.98398 8.58418 6.42938 9.0307C6.87478 9.47721 7.125 10.0828 7.125 10.7143V22.619C7.125 23.2505 6.87478 23.8561 6.42938 24.3026C5.98398 24.7491 5.37989 25 4.75 25ZM2.375 10.7143V22.619H4.75V10.7143H2.375ZM3.5625 7.14286C2.85791 7.14286 2.16913 6.9334 1.58328 6.54096C0.997433 6.14853 0.540818 5.59075 0.271181 4.93816C0.00154358 4.28556 -0.0690058 3.56747 0.068454 2.87468C0.205914 2.18189 0.545209 1.54552 1.04343 1.04605C1.54166 0.546575 2.17643 0.20643 2.86749 0.0686256C3.55855 -0.0691787 4.27485 0.00154745 4.92581 0.27186C5.57677 0.542173 6.13316 0.999932 6.52461 1.58725C6.91606 2.17457 7.125 2.86507 7.125 3.57143C7.125 4.51863 6.74967 5.42704 6.08157 6.09681C5.41347 6.76658 4.50733 7.14286 3.5625 7.14286V7.14286ZM3.5625 2.38095C3.32764 2.38095 3.09805 2.45077 2.90276 2.58159C2.70748 2.7124 2.55527 2.89832 2.46539 3.11585C2.37552 3.33339 2.352 3.57275 2.39782 3.80368C2.44364 4.03461 2.55674 4.24673 2.72281 4.41322C2.88889 4.57971 3.10048 4.6931 3.33083 4.73903C3.56118 4.78497 3.79995 4.76139 4.01694 4.67129C4.23392 4.58118 4.41939 4.4286 4.54987 4.23282C4.68036 4.03705 4.75 3.80688 4.75 3.57143C4.75 3.2557 4.62489 2.95289 4.40219 2.72964C4.17949 2.50638 3.87745 2.38095 3.5625 2.38095V2.38095Z" fill="#BEBEBE"/>
</svg>
