<svg width="100" height="100" viewBox="0 0 100 100" fill="none" xmlns="http://www.w3.org/2000/svg">
<circle cx="50" cy="50" r="50" fill="url(#paint0_radial_22_130)"/>
<path d="M30.1644 65V36.8H35.2844V49.28H35.3644L47.8044 36.8H54.0444L40.3244 50.36L54.7244 65H48.4044L35.3644 51.96H35.2844V65H30.1644ZM48.5269 65V36.8H59.0069C63.7269 36.8 67.3669 38.0133 69.9269 40.44C72.5135 42.8667 73.8069 46.3467 73.8069 50.88C73.8069 55.3867 72.5135 58.8667 69.9269 61.32C67.3669 63.7733 63.7269 65 59.0069 65H48.5269ZM53.6469 60.76H58.6869C65.1935 60.76 68.4469 57.4667 68.4469 50.88C68.4469 44.32 65.1935 41.04 58.6869 41.04H53.6469V60.76Z" fill="#071013"/>
<defs>
<radialGradient id="paint0_radial_22_130" cx="0" cy="0" r="1" gradientUnits="userSpaceOnUse" gradientTransform="translate(50 50) rotate(90.7639) scale(50.0044)">
<stop stop-color="#D2BBA0"/>
<stop offset="1" stop-color="#D2BBA0" stop-opacity="0"/>
</radialGradient>
</defs>
</svg>
